<?xml version="1.0" encoding="UTF-8"?>
<svg width="64px" height="64px" viewBox="0 0 64 64" version="1.1" xmlns="http://www.w3.org/2000/svg">
    <title>EXIF Orientation Helper</title>
    <g stroke="none" stroke-width="1" fill="none" fill-rule="evenodd">
        <g>
            <rect fill="#EA3A8C" x="0" y="0" width="64" height="64" />
            <path d="M48,18.6666667 L48,28 C48,28.3611111 47.8680556,28.6736111 47.6041667,28.9375 C47.3402778,29.2013889 47.0277778,29.3333333 46.6666667,29.3333333 L37.3333333,29.3333333 C36.75,29.3333333 36.3402778,29.0555556 36.1041667,28.5 C35.8680556,27.9583333 35.9652778,27.4791667 36.3958333,27.0625 L39.2708333,24.1875 C37.2152778,22.2847222 34.7916667,21.3333333 32,21.3333333 C30.5555556,21.3333333 29.1770833,21.6145833 27.8645833,22.1770833 C26.5520833,22.7395833 25.4166667,23.5 24.4583333,24.4583333 C23.5,25.4166667 22.7395833,26.5520833 22.1770833,27.8645833 C21.6145833,29.1770833 21.3333333,30.5555556 21.3333333,32 C21.3333333,33.4444444 21.6145833,34.8229167 22.1770833,36.1354167 C22.7395833,37.4479167 23.5,38.5833333 24.4583333,39.5416667 C25.4166667,40.5 26.5520833,41.2604167 27.8645833,41.8229167 C29.1770833,42.3854167 30.5555556,42.6666667 32,42.6666667 C33.6527778,42.6666667 35.2152778,42.3055556 36.6875,41.5833333 C38.1597222,40.8611111 39.4027778,39.8402778 40.4166667,38.5208333 C40.5138889,38.3819444 40.6736111,38.2986111 40.8958333,38.2708333 C41.0902778,38.2708333 41.2638889,38.3333333 41.4166667,38.4583333 L44.2708333,41.3333333 C44.3958333,41.4444444 44.4618056,41.5868056 44.46875,41.7604167 C44.4756944,41.9340278 44.4236111,42.0902778 44.3125,42.2291667 C42.7986111,44.0625 40.9652778,45.4826389 38.8125,46.4895833 C36.6597222,47.4965278 34.3888889,48 32,48 C29.8333333,48 27.7638889,47.5763889 25.7916667,46.7291667 C23.8194444,45.8819444 22.1180556,44.7430556 20.6875,43.3125 C19.2569444,41.8819444 18.1180556,40.1805556 17.2708333,38.2083333 C16.4236111,36.2361111 16,34.1666667 16,32 C16,29.8333333 16.4236111,27.7638889 17.2708333,25.7916667 C18.1180556,23.8194444 19.2569444,22.1180556 20.6875,20.6875 C22.1180556,19.2569444 23.8194444,18.1180556 25.7916667,17.2708333 C27.7638889,16.4236111 29.8333333,16 32,16 C34.0416667,16 36.0173611,16.3854167 37.9270833,17.15625 C39.8368056,17.9270833 41.5347222,19.0138889 43.0208333,20.4166667 L45.7291667,17.7291667 C46.1319444,17.2986111 46.6180556,17.2013889 47.1875,17.4375 C47.7291667,17.6736111 48,18.0833333 48,18.6666667 L48,18.6666667 Z" fill="#FFFFFF" />
        </g>
    </g>
</svg>
