<svg width="64px" height="64px" viewBox="2 0 64 64" version="1.1" xmlns="http://www.w3.org/2000/svg">
    <g stroke="none" stroke-width="1" fill="none" fill-rule="evenodd" transform="translate(2.000000, 0.000000)">
        <rect fill="#EA3A8C" x="0" y="0" width="64" height="64"/>
        <path d="M43.2763266,20.7236734 L47.0857143,16.9142857 C47.3142857,16.6857143 48,16.9142857 48,17.3714286 L48,26.9714286 C48,27.2 47.7714286,27.4285714 47.3142857,27.4285714 L37.9428571,27.4285714 C37.4857143,27.4285714 37.2571429,26.7428571 37.7142857,26.2857143 L40.8253217,23.1746783 C38.5868258,20.8369887 35.4214508,19.4285714 32,19.4285714 C25.1428571,19.4285714 19.4285714,25.1428571 19.4285714,32 C19.4285714,38.8571429 25.1428571,44.5714286 32,44.5714286 C36.1142857,44.5714286 39.5428571,42.7428571 42.0571429,39.5428571 L44.5714286,42.0571429 C41.3714286,45.7142857 37.0285714,48 32,48 C23.0857143,48 16,40.9142857 16,32 C16,23.0857143 23.0857143,16 32,16 C36.4104084,16 40.4160549,17.8214287 43.2763266,20.7236734 L43.2763266,20.7236734 Z"
            fill="#FFFFFF"/>
    </g>
</svg>