<?xml version="1.0" encoding="UTF-8"?>
<svg width="14px" height="14px" viewBox="0 0 14 14" version="1.1" xmlns="http://www.w3.org/2000/svg">
    <g stroke="none" stroke-width="1" fill="none" fill-rule="evenodd">
        <g fill="#000000">
            <path d="M10.5238521,3.47614793 L11.7142857,2.28571429 C11.7857143,2.21428571 12,2.28571429 12,2.42857143 L12,5.42857143 C12,5.5 11.9285714,5.57142857 11.7857143,5.57142857 L8.85714286,5.57142857 C8.71428571,5.57142857 8.64285714,5.35714286 8.78571429,5.21428571 L9.75791304,4.24208696 C9.05838305,3.51155898 8.06920338,3.07142857 7,3.07142857 C4.85714286,3.07142857 3.07142857,4.85714286 3.07142857,7 C3.07142857,9.14285714 4.85714286,10.9285714 7,10.9285714 C8.28571429,10.9285714 9.35714286,10.3571429 10.1428571,9.35714286 L10.9285714,10.1428571 C9.92857143,11.2857143 8.57142857,12 7,12 C4.21428571,12 2,9.78571429 2,7 C2,4.21428571 4.21428571,2 7,2 C8.37825263,2 9.63001716,2.56919648 10.5238521,3.47614793 L10.5238521,3.47614793 Z" />
        </g>
    </g>
</svg>